<?xml version="1.0" encoding="UTF-8"?>
<svg width="84px" height="84px" viewBox="0 0 84 84" version="1.1" xmlns="http://www.w3.org/2000/svg" xmlns:xlink="http://www.w3.org/1999/xlink">
    <title>Shape</title>
    <g id="Welcome" stroke="none" stroke-width="1" fill="none" fill-rule="evenodd">
        <g id="About" transform="translate(-397.000000, -640.000000)" fill="#FFFFFF" stroke="#FFFFFF">
            <g id="noun_Tennis-Ball_1062233" transform="translate(389.000000, 640.000000)">
                <g id="Group" transform="translate(9.000000, 0.637820)">
                    <path d="M41.000549,0.3622 C18.350916,0.3622 5.8e-05,18.71194 5.8e-05,41.3616 C5.8e-05,64.0113 18.350916,82.3622 41.000549,82.3622 C63.650218,82.3622 81.999942,64.0113 81.999942,41.3616 C81.999942,18.71194 63.650218,0.3622 41.000549,0.3622 Z M41.000549,2.36196 C51.005679,2.36196 60.117895,6.1132 67.015084,12.28654 C50.993915,28.23603 50.993809,54.4884 67.015084,70.4378 C60.117895,76.6111 51.005573,80.3613 41.000549,80.3613 C30.979723,80.3613 21.853865,76.5986 14.952814,70.4079 C30.923738,54.4745 30.872254,28.28961 14.919614,12.34523 C21.824527,6.13701 30.963814,2.36196 41.00055,2.36196 L41.000549,2.36196 Z M68.472269,13.65735 C75.594351,20.71991 80.000206,30.51694 80.000206,41.3616 C80.000206,52.2063 75.594351,62.0033 68.472269,69.0659 C53.16373,53.8771 53.16373,28.84609 68.472269,13.65735 Z M13.465758,13.71935 C28.703325,28.90468 28.750876,53.8647 13.496728,69.0348 C6.393212,61.9746 1.999831,52.1902 1.999831,41.3616 C1.999831,30.54878 6.380456,20.77717 13.465759,13.71935 L13.465758,13.71935 Z" id="Shape"></path>
                </g>
            </g>
        </g>
    </g>
</svg>