<?xml version="1.0" encoding="UTF-8"?>
<svg width="96px" height="90px" viewBox="0 0 96 90" version="1.1" xmlns="http://www.w3.org/2000/svg" xmlns:xlink="http://www.w3.org/1999/xlink">
 
    <g id="Welcome" stroke="none" stroke-width="1" fill="none" fill-rule="evenodd">
        <g id="About" transform="translate(-525.000000, -628.000000)">
            <rect id="Rectangle" stroke="#979797"  x="0" y="0" width="1440" height="1216"></rect>
            <g id="noun_Paw_3354456" transform="translate(525.000000, 628.000000)" fill="#FFFFFF" fill-rule="nonzero">
                <path d="M31.19,44 C28.77,46.28 27.68,49.07 26.63,51.77 C25.36,55.05 24.15,58.14 20.58,60.49 C16.11,63.41 12.58,70.11 14.75,78.49 C15.8044389,82.2238655 18.361111,85.3527106 21.81,87.13 C26.2540266,89.5493181 31.4773615,90.1033081 36.33,88.67 C40.0638824,87.3970616 43.975442,86.7220729 47.92,86.67 L48.09,86.67 C52.0379962,86.7201817 55.9531436,87.3952072 59.69,88.67 C61.3988814,89.20338 63.17984,89.4698492 64.97,89.4602634 C68.1959701,89.4648882 71.3720794,88.6639862 74.21,87.13 C77.658889,85.3527106 80.2155611,82.2238655 81.27,78.49 L81.27,78.49 C83.43,70.12 79.9,63.42 75.44,60.49 C71.84,58.13 70.64,55.03 69.37,51.75 C68.37,49.05 67.24,46.26 64.82,44 C62.8781829,42.1863493 60.7649455,40.5654192 58.51,39.16 C52.056043,35.1605402 43.893957,35.1605402 37.44,39.16 C35.2065639,40.5695837 33.1136276,42.1903536 31.19,44 Z M56.38,42.55 C58.4133125,43.8157446 60.3189201,45.275929 62.07,46.91 C63.82,48.55 64.66,50.7 65.62,53.19 C67,56.74 68.56,60.77 73.23,63.83 C76.39,65.9 79.03,71.05 77.38,77.47 C76.5947578,80.1360504 74.7415459,82.3584569 72.26,83.61 C68.7914007,85.522482 64.7053027,85.9792905 60.9,84.88 C56.8608546,83.5206419 52.6404442,82.7756653 48.38,82.67 L48,82.67 C43.6101157,82.7098451 39.2549501,83.4525865 35.1,84.87 C31.2968702,85.9842339 27.2068593,85.5417788 23.73,83.64 C21.2463365,82.3861919 19.3928175,80.1597969 18.61,77.49 C16.94,71.08 19.61,65.93 22.76,63.86 C27.41,60.86 28.97,56.79 30.35,53.25 C31.35,50.75 32.16,48.6 33.92,46.94 C35.654141,45.3173042 37.5393761,43.8640325 39.55,42.6 C44.7007569,39.3843929 51.2316196,39.3766365 56.39,42.58 L56.38,42.55 Z" id="Shape"></path>
                <path d="M60.59,37.38 C61.1013512,37.4735804 61.6201566,37.5204403 62.14,37.5200031 C68.37,37.5200031 74.3,30.74 76.05,21.23 C76.9456431,16.8165769 76.6206488,12.2424545 75.11,8 C73.51,3.88 70.75,1.27 67.34,0.64 C63.93,0.01 60.42,1.48 57.46,4.76 C54.5456766,8.1796302 52.6167734,12.3278091 51.88,16.76 C50.9824984,21.1766328 51.307511,25.7544692 52.82,30 C54.42,34.15 57.18,36.76 60.59,37.38 Z M55.81,17.52 C56.4054678,13.8075166 57.9989511,10.3267407 60.42,7.45 C62.15,5.53 64,4.50993815 65.8,4.50993815 C66.0715703,4.50856816 66.3427016,4.53199925 66.61,4.58 C68.61,4.95 70.3,6.68 71.38,9.45 C72.6208631,12.9989863 72.8732008,16.8186185 72.11,20.5 C70.67,28.32 65.73,34.25 61.31,33.43 C59.31,33.06 57.62,31.33 56.54,28.56 C55.3009713,25.0140962 55.0486504,21.1981752 55.81,17.52 L55.81,17.52 Z" id="Shape"></path>
                <path d="M92.05,30.15 C87.54,26.77 80.05,29.41 74.98,36.15 C69.91,42.89 69.5,50.86 74,54.24 C75.3334416,55.2231514 76.953568,55.7397643 78.61,55.71 C80.0415431,55.6865679 81.4559933,55.3948587 82.78,54.85 C86.0950156,53.4352986 88.961257,51.142997 91.07,48.22 C93.2708729,45.3709438 94.6537466,41.9759888 95.07,38.4 C95.44,34.81 94.35,31.88 92.05,30.15 Z M91.13,38 C90.7617479,40.8372661 89.6394446,43.5238875 87.88,45.78 C86.2107253,48.1038179 83.9488437,49.937496 81.33,51.09 C80.16,51.55 77.96,52.15 76.41,51 C74.12,49.28 74.29,43.74 78.19,38.53 C81.12,34.62 84.82,32.67 87.45,32.67 C88.2332843,32.6395118 89.0053018,32.8640987 89.65,33.31 C91.2,34.51 91.24,36.79 91.13,38 Z" id="Shape"></path>
                <path d="M33.86,37.5300004 C34.3798311,37.5300004 34.8986116,37.4833078 35.41,37.39 C38.82,36.76 41.58,34.15 43.18,30.03 C44.6906488,25.7875455 45.0156431,21.2134231 44.12,16.8 C43.3832266,12.3678091 41.4543234,8.2196302 38.54,4.8 C35.54,1.52 32.07,0.06 28.66,0.68 C25.25,1.3 22.49,3.89 20.89,8 C19.3941889,12.2501475 19.0864702,16.8278953 20,21.24 C21.7,30.75 27.62,37.5300004 33.86,37.5300004 Z M24.62,9.46 C25.7,6.68 27.39,4.95 29.39,4.59 C31.39,4.23 33.58,5.24 35.58,7.45 C38.0010489,10.3267407 39.5945322,13.8075166 40.19,17.52 C40.9532008,21.2013815 40.7008631,25.0210137 39.46,28.57 C38.38,31.35 36.69,33.08 34.69,33.45 C30.28,34.26 25.33,28.34 23.89,20.52 C23.1249461,16.8354126 23.3773007,13.0120685 24.62,9.46 L24.62,9.46 Z" id="Shape"></path>
                <path d="M13.21,54.85 C14.5340067,55.3948587 15.9484569,55.6865679 17.38,55.71 C19.0398366,55.7419738 20.6638256,55.22525 22,54.24 C26.51,50.86 26.08,42.92 21,36.17 C15.92,29.42 8.45,26.77 3.93,30.17 C1.63,31.89 0.55,34.82 0.87,38.42 C1.28625336,41.9959888 2.6691271,45.3909438 4.87,48.24 C6.99508072,51.1627668 9.87915006,53.448582 13.21,54.85 Z M6.34,33.36 C6.98469822,32.9140987 7.75671571,32.6895118 8.54,32.72 C11.17,32.72 14.87,34.66 17.8,38.58 C21.7,43.79 21.87,49.33 19.58,51.05 C18.04,52.21 15.84,51.61 14.66,51.14 C12.0411563,49.987496 9.7792747,48.1538179 8.11,45.83 C6.34591676,43.5586246 5.22666117,40.8537569 4.87,38 C4.76,36.79 4.8,34.51 6.34,33.36 Z" id="Shape"></path>
            </g>
        </g>
    </g>
</svg>