<?xml version="1.0" encoding="UTF-8"?>
<svg width="31px" height="48px" viewBox="0 0 31 48" version="1.1" xmlns="http://www.w3.org/2000/svg" xmlns:xlink="http://www.w3.org/1999/xlink">
  
    <g id="Welcome" stroke="none" stroke-width="1" fill="none" fill-rule="evenodd">
        <g id="About" transform="translate(-399.000000, -869.000000)">
            <rect id="Rectangle" stroke="#979797" fill="url(#linearGradient-1)" x="0" y="0" width="1440" height="1216"></rect>
            <g id="Group-2" transform="translate(398.000000, 810.000000)" fill="#FFFFFF" fill-rule="nonzero">
                <g id="noun_Code-Fork_2071717" transform="translate(1.000000, 59.000000)">
                    <g id="Group">
                        <path d="M26.2806709,16.3836735 C26.3004792,16.7412245 26.2707668,17.1085714 26.2361022,17.4661224 C26.2261981,17.5493878 26.2162939,17.6326531 26.2063898,17.7159184 C26.1964856,17.8040816 26.221246,17.6277551 26.2014377,17.76 C26.1915335,17.8138776 26.1865815,17.8677551 26.1766773,17.9216327 C26.1420128,18.1322449 26.1023962,18.3428571 26.0578275,18.5534694 C25.9488818,19.0579592 25.8052716,19.5526531 25.6319489,20.037551 C24.671246,22.6922449 22.6854633,24.7983673 20.278754,26.282449 C17.9017572,27.7469388 15.242492,28.6383673 12.5584665,29.3828571 C10.4043131,29.9804082 8.11645367,30.3918367 6.36341853,31.8661224 C5.0956869,32.9338776 4.11022364,34.5110204 3.78338658,36.1420408 C3.7784345,36.1714286 3.77348243,36.2008163 3.76853035,36.2253061 C3.72396166,36.484898 3.83785942,36.7542857 4.11517572,36.8277551 C4.3528754,36.8914286 4.67971246,36.7493878 4.72428115,36.484898 C4.78865815,36.0783673 4.93226837,35.6718367 5.08578275,35.2897959 C5.0956869,35.2653061 5.14025559,35.1526531 5.12044728,35.2016327 C5.10063898,35.2555102 5.15015974,35.1281633 5.1600639,35.1085714 C5.20958466,35.0008163 5.25910543,34.8979592 5.3086262,34.795102 C5.41261981,34.5893878 5.52651757,34.3885714 5.64536741,34.1877551 C5.93258786,33.722449 6.21980831,33.36 6.61102236,32.9681633 C7.40830671,32.1697959 8.39376997,31.6212245 9.46341853,31.2685714 C10.4587859,30.9404082 11.4789137,30.6906122 12.4891374,30.4163265 C15.178115,29.6816327 17.8621406,28.8146939 20.2837061,27.4187755 C22.8736422,25.9297959 25.0822684,23.8236735 26.2757188,21.0710204 C26.6867412,20.1159184 26.9888179,19.1216327 27.1472843,18.0979592 C27.2314696,17.5591837 27.3007987,17.0008163 27.2760383,16.4571429 C27.2760383,16.4326531 27.2760383,16.4081633 27.2710863,16.3836735 C27.2314696,15.7567347 26.2410543,15.7518367 26.2806709,16.3836735 L26.2806709,16.3836735 Z" id="Path"></path>
                        <path d="M4.72428115,40.1387755 C4.72428115,39.0710204 4.72428115,37.9983673 4.72428115,36.9306122 C4.72428115,34.3640816 4.72428115,31.7926531 4.72428115,29.2261224 C4.72428115,26.1208163 4.72428115,23.0106122 4.72428115,19.9053061 C4.72428115,17.2163265 4.72428115,14.5322449 4.72428115,11.8432653 C4.72428115,10.5355102 4.75894569,9.2277551 4.72428115,7.92 C4.72428115,7.90040816 4.72428115,7.88081633 4.72428115,7.86612245 C4.72428115,7.23428571 3.73386581,7.23428571 3.73386581,7.86612245 C3.73386581,8.93387755 3.73386581,10.0065306 3.73386581,11.0742857 C3.73386581,13.6408163 3.73386581,16.2122449 3.73386581,18.7787755 C3.73386581,21.8840816 3.73386581,24.9942857 3.73386581,28.0995918 C3.73386581,30.7885714 3.73386581,33.4726531 3.73386581,36.1616327 C3.73386581,37.4693878 3.69920128,38.7771429 3.73386581,40.084898 C3.73386581,40.1044898 3.73386581,40.1240816 3.73386581,40.1387755 C3.73386581,40.7706122 4.72428115,40.7706122 4.72428115,40.1387755 L4.72428115,40.1387755 Z" id="Path"></path>
                        <path d="M29.9947284,12.7102041 C29.9848243,14.0130612 29.1627796,15.2473469 27.9049521,15.6930612 C26.607508,16.1534694 25.1664537,15.7714286 24.2800319,14.7232653 C23.4183706,13.7044898 23.3292332,12.1959184 24.0175719,11.0644898 C24.7009585,9.93795918 26.0825879,9.31591837 27.3899361,9.58040816 C28.8953674,9.88897959 29.9798722,11.1918367 29.9947284,12.7102041 C29.9996805,13.3420408 30.9900958,13.3420408 30.9851438,12.7102041 C30.9702875,10.9567347 29.8610224,9.40408163 28.2020767,8.79183673 C26.5728435,8.19428571 24.6365815,8.71836735 23.5421725,10.0506122 C22.4279553,11.402449 22.2496805,13.3420408 23.1658147,14.8457143 C24.0819489,16.3542857 25.8845048,17.1232653 27.6276358,16.7853061 C29.5738019,16.4081633 30.9702875,14.644898 30.9900958,12.7102041 C30.9900958,12.0783673 29.9996805,12.0783673 29.9947284,12.7102041 Z" id="Path"></path>
                        <path d="M7.44297125,4.1877551 C7.43306709,5.49061224 6.61102236,6.72489796 5.35319489,7.17061224 C4.0557508,7.63102041 2.61469649,7.24897959 1.72827476,6.20081633 C0.866613419,5.18204082 0.777476038,3.67346939 1.4658147,2.54204082 C2.14920128,1.4155102 3.53083067,0.793469388 4.83817891,1.05795918 C6.3485623,1.36653061 7.42811502,2.66938776 7.44297125,4.1877551 C7.44792332,4.81959184 8.43835717,4.81959184 8.43338658,4.1877551 C8.41853035,2.43428571 7.30926518,0.881632653 5.65031949,0.269387755 C4.02108626,-0.328163265 2.08482428,0.195918367 0.990415335,1.52816327 C-0.123801917,2.88 -0.302076677,4.81959184 0.614057508,6.32326531 C1.53019169,7.83183673 3.3327476,8.60081633 5.07587859,8.26285714 C7.02204473,7.88571429 8.41853035,6.12244898 8.43835717,4.1877551 C8.44329073,3.55591837 7.4528754,3.55591837 7.44297125,4.1877551 Z" id="Path"></path>
                        <path d="M7.46277955,43.8122449 C7.4528754,45.115102 6.63083067,46.3493878 5.37300319,46.795102 C4.07555911,47.2555102 2.63450479,46.8734694 1.74808307,45.8253061 C0.886421725,44.8065306 0.797284345,43.2979592 1.485623,42.1665306 C2.16900958,41.04 3.55063898,40.4179592 4.85798722,40.682449 C6.36341853,40.9910204 7.44792332,42.2938776 7.46277955,43.8122449 C7.46773163,44.4440816 8.45814696,44.4440816 8.45319489,43.8122449 C8.43833866,42.0587755 7.32907348,40.5061224 5.6701278,39.8938776 C4.04089457,39.2963265 2.10463259,39.8204082 1.01022364,41.1526531 C-0.10399361,42.5044898 -0.282268371,44.4440816 0.633865815,45.9477551 C1.55,47.4563265 3.35255591,48.2253061 5.0956869,47.8873469 C7.04185304,47.5102041 8.43833866,45.7469388 8.45814696,43.8122449 C8.45814696,43.1804082 7.46773163,43.1804082 7.46277955,43.8122449 Z" id="Path"></path>
                    </g>
                </g>
            </g>
        </g>
    </g>
</svg>