<?xml version="1.0" encoding="UTF-8"?>
<svg width="87px" height="86px" viewBox="0 0 87 86" version="1.1" xmlns="http://www.w3.org/2000/svg" xmlns:xlink="http://www.w3.org/1999/xlink">
  
    <g id="Welcome" stroke="none" stroke-width="1" fill="none" fill-rule="evenodd">
        <g id="About" transform="translate(-645.000000, -629.000000)">
            <rect id="Rectangle" stroke="#979797"  x="0" y="0" width="1440" height="1216"></rect>
            <g id="noun_toys_847357" transform="translate(645.000000, 629.000000)" fill="#FFFFFF" fill-rule="nonzero">
                <circle id="Oval" transform="translate(14.962276, 26.248671) rotate(-17.360000) translate(-14.962276, -26.248671) " cx="14.9622758" cy="26.2486712" r="1.18"></circle>
                <circle id="Oval" transform="translate(20.466565, 29.163267) rotate(-7.230000) translate(-20.466565, -29.163267) " cx="20.4665649" cy="29.1632675" r="1.71"></circle>
                <circle id="Oval" transform="translate(23.156788, 23.686380) rotate(-51.910000) translate(-23.156788, -23.686380) " cx="23.1567882" cy="23.6863796" r="1.18"></circle>
                <path d="M63.57,73.33 C61.543115,73.33 59.9,74.973115 59.9,77 C59.9,79.026885 61.543115,80.67 63.57,80.67 C65.596885,80.67 67.24,79.026885 67.24,77 C67.24,76.0266555 66.8533404,75.0931766 66.1650819,74.4049181 C65.4768234,73.7166596 64.5433445,73.33 63.57,73.33 L63.57,73.33 Z M63.57,78.66 C62.8936407,78.6599879 62.2840749,78.2520149 62.0261876,77.6267501 C61.7683002,77.0014853 61.9130207,76.2824108 62.3927131,75.8055909 C62.8724054,75.3287709 63.5923362,75.1883717 64.2160408,75.4500098 C64.8397455,75.7116478 65.2440501,76.3236528 65.2400301,77 C65.2400301,77.9223155 64.4923155,78.67 63.57,78.67 L63.57,78.66 Z" id="Shape"></path>
                <path d="M22.74,73.33 C20.713115,73.33 19.07,74.973115 19.07,77 C19.07,79.026885 20.713115,80.67 22.74,80.67 C24.766885,80.67 26.41,79.026885 26.41,77 C26.41,76.0266555 26.0233404,75.0931766 25.3350819,74.4049181 C24.6468234,73.7166596 23.7133445,73.33 22.74,73.33 L22.74,73.33 Z M22.74,78.66 C22.0636407,78.6599879 21.4540749,78.2520149 21.1961876,77.6267501 C20.9383002,77.0014853 21.0830207,76.2824108 21.5627131,75.8055909 C22.0424054,75.3287709 22.7623362,75.1883717 23.3860408,75.4500098 C24.0097455,75.7116478 24.4140501,76.3236528 24.4100301,77 C24.4100301,77.9223155 23.6623155,78.67 22.74,78.67 L22.74,78.66 Z" id="Shape"></path>
                <circle id="Oval" transform="translate(74.259936, 23.946730) rotate(-62.630000) translate(-74.259936, -23.946730) " cx="74.2599362" cy="23.9467299" r="1.5"></circle>
                <circle id="Oval" transform="translate(66.802417, 20.087053) rotate(-62.630000) translate(-66.802417, -20.087053) " cx="66.8024171" cy="20.0870527" r="1.5"></circle>
                <path d="M66.29,29.33 C67.3654254,29.8873085 68.5587482,30.178781 69.77,30.1800318 C70.9137556,30.1833415 72.0429233,29.9232907 73.07,29.42 C73.5218938,29.1550447 73.6927336,28.5862608 73.4616216,28.1161581 C73.2305097,27.6460553 72.6757815,27.4339753 72.19,27.63 C70.6046253,28.3998445 68.7478439,28.3709507 67.1871905,27.5521502 C65.626537,26.7333497 64.5475399,25.2219805 64.28,23.48 C64.2281965,23.1227344 63.9897291,22.8202442 63.6544263,22.6864746 C63.3191235,22.552705 62.9379256,22.6079786 62.6544263,22.8314746 C62.370927,23.0549705 62.2281965,23.4127344 62.28,23.77 C62.6466284,26.1595935 64.1382975,28.227843 66.29,29.33 Z" id="Path"></path>
                <path d="M83.79,38 L76.4,32.53 L76.57,32.45 C76.6014555,32.4789327 76.6348681,32.5056628 76.67,32.53 C77.7629838,33.021841 78.9516982,33.264366 80.15,33.24 C82,33.24 83.9,32.7 84.64,31.24 L84.64,31.15 C88.0571443,24.5835926 86.7826899,16.5553417 81.5,11.37 C81.8393274,10.879851 82.0835624,10.3303222 82.22,9.75 C82.6049429,8.09934367 82.0792045,6.36876303 80.8411338,5.21116701 C79.6030632,4.05357099 77.8411027,3.64515304 76.22,4.14 L71.28,5.63 L67.58,2.14 C65.7337497,0.382028008 62.8264382,0.403491889 61.006345,2.18853149 C59.1862517,3.97357109 59.1082601,6.87991553 60.83,8.76 C58.1429321,10.3623905 55.9600172,12.6873681 54.53,15.47 L54.44,15.65 C53.24,17.97 55.79,20.71 57.7,21.92 C57.7,22.07 57.7,22.22 57.75,22.37 L49.15,19.79 C47.7439898,19.3331049 46.2123597,19.4703737 44.91,20.17 C43.6052696,20.8492797 42.6182062,22.0122199 42.16,23.41 C41.1893639,26.3038767 42.74694,29.4369322 45.64,30.41 L50.46,32 L49,34.88 C47.7050946,34.4671139 46.3586004,34.2382099 45,34.2 C44.9614706,32.5221675 44.1589888,30.9537411 42.8208231,29.9408645 C41.4826573,28.927988 39.755262,28.5815147 38.13,29 L30.49,30.91 C31.5937086,28.7832001 31.8920132,26.3292899 31.33,24 C31.0359438,22.8329942 30.527285,21.7309001 29.83,20.75 C31.2510555,19.4163204 31.672489,17.3294329 30.8803466,15.5488122 C30.0882041,13.7681914 28.2560017,12.6838761 26.3139149,12.8463532 C24.371828,13.0088304 22.7452642,14.3825099 22.26,16.27 C18.8569947,15.7594159 15.390373,16.6188791 12.62,18.66 C11.4908753,17.409286 9.76828626,16.8760124 8.13,17.27 C6.95750313,17.532148 5.93852125,18.2522765 5.3,19.27 C4.53968805,20.464519 4.40680296,21.9538653 4.94362958,23.2641199 C5.48045619,24.5743745 6.62013005,25.5423385 8,25.86 C7.78004097,27.1592763 7.82768057,28.4897823 8.14,29.77 L8.14,29.77 C8.73805805,32.0975039 10.1590645,34.1295432 12.14,35.49 L4.14,37.49 C1.23163513,38.2597799 -0.5185345,41.2235132 0.211780526,44.1420381 C0.942095552,47.0605629 3.88185068,48.8507162 6.81,48.16 L9.26,47.55 C10.3282204,47.2851694 11.4096849,47.9331543 11.68,49 L11.93,50 L9,50 C8.44771525,50 8,50.4477153 8,51 L8,77 C8,77.5522847 8.44771525,78 9,78 L13.8,78 C14.3267237,82.5387214 18.1708173,85.962503 22.74,85.962503 C27.3091827,85.962503 31.1532763,82.5387214 31.68,78 L54.8,78 C55.3267237,82.5387214 59.1708173,85.962503 63.74,85.962503 C68.3091827,85.962503 72.1532763,82.5387214 72.68,78 L79,78 C79.5522847,78 80,77.5522847 80,77 L80,51 C80,50.4477153 79.5522847,50 79,50 L69.31,50 L72.7,43.44 L77.23,46.82 C78.7998542,48.0828176 80.934533,48.3862237 82.7940816,47.6108338 C84.6536303,46.8354439 85.940395,45.1053731 86.1480589,43.1013705 C86.3557228,41.0973679 85.4510455,39.1402099 83.79,38 Z M60.58,17.37 L60.58,17.37 L60.72,17.09 C60.9191383,16.686991 61.2844235,16.39111 61.72,16.28 C62.610668,16.0896874 63.5192361,15.9958132 64.43,15.9998659 C67.1645834,16.0383434 69.8512194,16.7237097 72.27,18 C75.4361175,19.5643569 78.0110409,22.1112157 79.61,25.26 C79.8113074,25.6804811 79.8113074,26.1695189 79.61,26.59 L79.37,27.07 C77.03,31.59 70.91,33.07 65.74,30.42 C60.57,27.77 58.24,21.9 60.58,17.37 Z M76.86,6.09 C78.1275659,5.71014549 79.4850423,6.29402812 80.081064,7.47545562 C80.6770856,8.65688313 80.3400211,10.0956495 79.2812662,10.889407 C78.2225114,11.6831645 76.7469474,11.6033414 75.78,10.7 L72.33,7.46 L76.86,6.09 Z M61.67,5 C61.8859553,4.04430619 62.6009529,3.27960294 63.54,3 C63.7993894,2.92120787 64.0689088,2.88077995 64.34,2.87999832 C65.031915,2.87922828 65.6977211,3.14411885 66.2,3.62 L69.65,6.86 L65.12,8.23 C64.1873053,8.51221225 63.1749016,8.275882 62.4635502,7.60989217 C61.7521989,6.94390234 61.4497677,5.94924231 61.67,5 Z M56.8,18.44 C56.22,17.67 56,16.98 56.21,16.58 L56.3,16.4 C57.6987432,13.6507959 59.9273982,11.4116448 62.67,10 C63.1934352,10.2016121 63.7490895,10.3066443 64.31,10.31 C64.7811285,10.3085951 65.2494835,10.2378364 65.7,10.1 L70.64,8.61 L74.4,12.14 C75.2690296,12.9657107 76.4212492,13.4273143 77.62,13.43 C78.483149,13.4291766 79.3298995,13.1941601 80.07,12.75 C84.7892102,17.3188258 85.940737,24.4477124 82.9,30.27 L82.9,30.36 C82.47,31.19 80.26,31.42 78.66,31.09 C79.674987,30.2315652 80.5109042,29.1815715 81.12,28 L81.38,27.49 C81.8418738,26.5257909 81.8418738,25.4042091 81.38,24.44 C77.5526678,17.1382107 69.5080939,13.0757411 61.36,14.33 C60.3374861,14.5652853 59.4726316,15.2432433 59,16.18 L58.86,16.45 C58.3663767,17.4069286 58.0287898,18.4365686 57.86,19.5 C57.4709405,19.1842965 57.1157035,18.8290595 56.8,18.44 Z M64.8,32.21 C66.7324939,33.220356 68.879338,33.7519228 71.06,33.76 C72.1088648,33.7600536 73.1536258,33.6290385 74.17,33.37 L75.36,34.25 C72.0083166,37.5567056 66.8889782,38.2839298 62.7490084,36.0414461 C58.6090385,33.7989624 56.4214106,29.1137982 57.36,24.5 C57.3642735,24.4467523 57.3642735,24.3932477 57.36,24.34 L58.23,24.6 C59.3304201,27.9040064 61.691901,30.6392986 64.8,32.21 L64.8,32.21 Z M44.06,24 C44.3624554,23.100334 44.9999524,22.3518123 45.84,21.91 C46.6719764,21.4610113 47.6520657,21.3742137 48.55,21.67 L48.97,21.8 L46.73,28.63 L46.27,28.47 C44.4269508,27.8441118 43.438314,25.8444709 44.06,24 L44.06,24 Z M56.95,50 L37.85,50 C38.7752166,46.4878578 41.186817,43.5542269 44.4535832,41.9669629 C47.7203493,40.3796989 51.5170764,40.296813 54.85,41.74 C56.2615163,43.80168 57.0178359,46.2414208 57.02,48.74 C57,49.17 57,49.59 56.95,50 Z M49.95,38.62 C43.1184577,38.6005299 37.1920322,43.3333525 35.7,50 L32.13,50 C32.13,49.59 32.05,49.17 32.05,48.76 C32.0193136,44.0115796 34.6902534,39.6585193 38.9374584,37.5349168 C43.1846634,35.4113144 48.2696755,35.8863987 52.05,38.76 C51.3443417,38.6616715 50.6324577,38.614881 49.92,38.62 L49.95,38.62 Z M26.07,14.88 C27.2002446,14.5997518 28.3785633,15.1082544 28.9500117,16.1228669 C29.5214602,17.1374795 29.3455266,18.4087218 28.52,19.23 C27.7823755,18.5314987 26.9510554,17.939141 26.05,17.47 C25.455872,17.1649429 24.8369979,16.9107027 24.2,16.71 C24.4467535,15.8068455 25.161722,15.1071704 26.07,14.88 L26.07,14.88 Z M6.72,22.38 C6.46432729,21.2493387 6.99108204,20.0864817 8.00963316,19.5330224 C9.02818428,18.9795631 10.2904544,19.1703016 11.1,20 C9.90003707,21.2004037 8.98724611,22.6567668 8.43,24.26 C7.57426626,23.975408 6.92711964,23.2677097 6.72,22.39 L6.72,22.38 Z M10.11,29.28 L10.11,29.28 C9.40741371,26.0946286 10.5696383,22.7861625 13.11,20.74 C14.4125936,19.6366163 15.9527235,18.8494388 17.61,18.44 C20.1206204,17.7834823 22.7846789,18.068028 25.1,19.24 C27.2111854,20.2831499 28.7655396,22.1914298 29.36,24.47 C30.52,29.12 27.14,33.98 21.82,35.31 C16.5,36.64 11.27,33.93 10.11,29.29 L10.11,29.28 Z M13.62,48.5 C13.0746956,46.3801295 10.9267722,45.0922668 8.8,45.61 L6.35,46.22 C4.48441391,46.6653873 2.60788306,45.52631 2.14205139,43.6657235 C1.67621971,41.805137 2.79463711,39.91622 4.65,39.43 L14.83,36.89 C16.2075855,37.3938666 17.6631592,37.6511308 19.13,37.65 C20.2089934,37.6477558 21.283654,37.5134232 22.33,37.25 C24.8376107,36.6354025 27.1002714,35.2757142 28.82,33.35 C28.8931101,33.3580912 28.9668899,33.3580912 29.04,33.35 L38.6,30.96 C40.4748808,30.4941593 42.3726365,31.6354982 42.84,33.51 C42.9016266,33.7621936 42.9351639,34.020431 42.94,34.28 C35.5766317,35.1226581 30.0128561,41.3485831 30,48.76 C30,49.17 30,49.59 30.06,50 L14,50 L13.62,48.5 Z M22.74,84 C19.9087643,84 17.3563103,82.2945048 16.2728433,79.678784 C15.1893763,77.0630633 15.7882666,74.0522385 17.7902525,72.0502525 C19.7922385,70.0482666 22.8030633,69.4493763 25.418784,70.5328433 C28.0345048,71.6163103 29.74,74.1687643 29.74,77 C29.74,80.8659932 26.6059932,84 22.74,84 L22.74,84 Z M63.74,84 C59.8740068,84 56.74,80.8659932 56.74,77 C56.74,73.1340068 59.8740068,70 63.74,70 C67.6059932,70 70.74,73.1340068 70.74,77 C70.74,80.8659932 67.6059932,84 63.74,84 L63.74,84 Z M72.68,76 C72.1532763,71.4612786 68.3091827,68.037497 63.74,68.037497 C59.1708173,68.037497 55.3267237,71.4612786 54.8,76 L31.68,76 C31.1532763,71.4612786 27.3091827,68.037497 22.74,68.037497 C18.1708173,68.037497 14.3267237,71.4612786 13.8,76 L10,76 L10,62.5 C10.680894,63.0469066 11.242452,63.7275829 11.65,64.5 C12.56,65.96 13.65,67.77 16,67.77 C18.35,67.77 19.44,65.96 20.35,64.5 C21.26,63.04 21.86,62.2 23,62.2 C24.14,62.2 24.75,63.09 25.65,64.53 C26.55,65.97 27.65,67.8 30,67.8 C32.35,67.8 33.44,65.99 34.35,64.53 C35.26,63.07 35.85,62.2 37,62.2 C38.15,62.2 38.75,63.09 39.65,64.53 C40.55,65.97 41.65,67.8 44,67.8 C46.35,67.8 47.44,65.99 48.35,64.53 C49.26,63.07 49.85,62.2 51,62.2 C52.15,62.2 52.75,63.08 53.65,64.53 C54.55,65.98 55.65,67.8 58,67.8 C60.35,67.8 61.44,65.99 62.35,64.53 C63.26,63.07 63.85,62.2 65,62.2 C66.15,62.2 66.75,63.09 67.66,64.53 C68.57,65.97 69.66,67.8 72.01,67.8 C74.36,67.8 75.45,65.99 76.36,64.53 C76.7699969,63.7563304 77.3350918,63.0754932 78.02,62.53 L78.02,76 L72.68,76 Z M78,60.34 C76.35,60.78 75.42,62.24 74.65,63.47 C73.75,64.91 73.13,65.8 71.99,65.8 C70.85,65.8 70.24,64.91 69.33,63.47 C68.42,62.03 67.33,60.2 64.98,60.2 C62.63,60.2 61.55,62 60.64,63.47 C59.73,64.94 59.12,65.8 58,65.8 C56.88,65.8 56.25,64.92 55.35,63.47 C54.45,62.02 53.35,60.2 51,60.2 C48.65,60.2 47.55,62 46.64,63.47 C45.73,64.94 45.13,65.8 44,65.8 C42.87,65.8 42.25,64.91 41.35,63.47 C40.45,62.03 39.35,60.2 37,60.2 C34.65,60.2 33.55,62 32.64,63.47 C31.73,64.94 31.13,65.8 30,65.8 C28.87,65.8 28.25,64.91 27.35,63.47 C26.45,62.03 25.3,60.2 23,60.2 C20.7,60.2 19.56,62 18.65,63.47 C17.74,64.94 17.14,65.8 16,65.8 C14.86,65.8 14.25,64.91 13.35,63.47 C12.58,62.24 11.65,60.78 10,60.34 L10,52 L78,52 L78,60.34 Z M59.05,50 C59.05,49.59 59.11,49.17 59.11,48.76 C59.1111904,45.7325424 58.1634328,42.7808547 56.4,40.32 C56.3628725,40.2588463 56.3192896,40.2018533 56.27,40.15 C54.8574456,38.2278309 52.9968936,36.6796594 50.85,35.64 L52.78,31.91 C52.915044,31.6504792 52.9296697,31.3448373 52.8200236,31.0736075 C52.7103775,30.8023776 52.4874573,30.5927649 52.21,30.5 L48.63,29.3 L50.89,22.4 L55.54,23.79 C55.4859352,23.8766573 55.4454657,23.971086 55.42,24.07 C54.2619208,29.6115815 56.9146629,35.2500017 61.9223312,37.8907462 C66.9299996,40.5314907 73.0812038,39.5357447 77,35.45 L80.61,38.12 L76.44,43.73 L73,41.2 L72.91,41.2 C72.8698732,41.1597036 72.8263822,41.1229036 72.78,41.09 C72.5440495,40.9674944 72.2690289,40.9439876 72.015711,41.0246741 C71.7623931,41.1053605 71.5516317,41.2835978 71.43,41.52 L67.06,50 L59.05,50 Z M83.32,44.5 C82.1632928,46.0478446 79.973077,46.3696723 78.42,45.22 L78.02,44.92 L82.2,39.3 L82.6,39.6 C83.345712,40.1539689 83.8406049,40.9816693 83.9756551,41.9007609 C84.1107053,42.8198525 83.8748329,43.7549306 83.32,44.5 L83.32,44.5 Z" id="Shape"></path>
            </g>
        </g>
    </g>
</svg>