<?xml version="1.0" encoding="UTF-8"?>
<svg width="1440px" height="268px" viewBox="0 0 1440 268" version="1.1" xmlns="http://www.w3.org/2000/svg" xmlns:xlink="http://www.w3.org/1999/xlink">
    <title>Path</title>
    <g id="Welcome" stroke="none" stroke-width="1" fill="none" fill-rule="evenodd">
        <g id="Desktop-HD" transform="translate(0.000000, -756.000000)" stroke="#FAFAFA">
            <path d="M1439.38851,974.263063 C1440.83753,928.389189 1440.35452,926.940541 1430.69443,929.837838 C1423.93236,932.252252 1421.03433,930.803604 1421.03433,925.491892 C1421.03433,921.145946 1419.10231,917.765766 1416.20428,917.765766 C1413.78926,917.765766 1411.37423,921.628829 1411.37423,926.457658 C1410.89123,934.183784 1410.89123,934.183784 1406.06118,926.457658 C1402.68014,920.18018 1394.95207,917.765766 1377.56389,917.765766 C1357.27769,917.765766 1353.41365,916.317117 1353.41365,908.590991 C1353.41365,903.762162 1350.03261,898.45045 1346.16857,896.518919 C1337.95749,893.621622 1324.43335,897.484685 1324.43335,903.279279 C1324.43335,905.210811 1320.56932,906.659459 1316.22227,906.176577 C1311.87523,906.176577 1307.04518,910.03964 1305.59616,915.351351 C1301.73213,928.389189 1265.50676,929.354955 1263.57474,916.8 C1262.60873,907.625225 1241.83952,879.618018 1236.52647,879.618018 C1234.11144,879.135135 1232.66243,882.032432 1232.66243,885.412613 C1232.66243,888.792793 1228.31538,894.104505 1223.00233,897.484685 C1217.68928,900.864865 1213.34223,907.142342 1213.34223,911.971171 C1212.85923,931.769369 1189.19199,943.841441 1168.42278,934.666667 C1163.10973,932.735135 1157.31367,933.218018 1154.41564,936.115315 C1150.5516,939.978378 1147.17057,940.461261 1142.34052,936.598198 C1138.95948,933.218018 1136.06145,933.218018 1136.06145,935.632432 C1136.06145,941.90991 1108.04717,942.392793 1104.18313,936.598198 C1102.25111,933.700901 1099.35308,933.700901 1095.00604,937.081081 C1090.659,940.944144 1085.34594,940.461261 1076.65185,936.598198 C1064.09373,930.803604 1059.74668,913.41982 1058.29767,865.131532 C1057.33166,840.504505 1055.88264,846.781982 1051.5356,895.07027 C1048.63757,922.111712 1046.70555,927.423423 1039.46048,927.423423 C1032.21541,927.423423 1030.28339,922.111712 1027.38536,895.07027 C1025.93634,876.720721 1023.52132,858.854054 1023.03831,854.990991 C1021.5893,848.713514 1018.20826,894.587387 1018.69127,919.214414 C1018.69127,925.974775 1014.34423,927.423423 995.507036,927.423423 C974.254821,927.423423 972.322802,926.457658 970.390782,914.385586 C968.941768,906.659459 967.492753,897.484685 967.492753,893.621622 C967.009748,878.169369 956.866646,827.94955 951.553592,815.877477 L945.757534,802.83964 L939.961475,814.428829 C932.233397,828.915315 923.056305,879.618018 922.5733,909.556757 C922.090295,942.392793 915.328227,937.563964 912.430197,902.313514 C909.532168,868.511712 902.287095,823.120721 896.974041,810.565766 C888.762958,789.801802 875.238822,809.6 875.238822,842.436036 C875.238822,854.508108 873.306802,865.614414 870.408773,867.063063 C867.993749,868.511712 865.578725,879.618018 865.578725,890.724324 C865.578725,910.522523 864.612715,911.971171 851.088578,913.902703 C834.183408,916.317117 828.387349,911.488288 825.972325,891.207207 L823.5573,876.720721 L819.693261,892.655856 C816.795232,904.727928 813.414198,908.108108 804.72011,908.108108 C790.229964,908.108108 785.88292,915.834234 787.81494,938.046847 L789.263954,956.396396 L684.934902,956.396396 L581.088854,956.396396 L579.639839,943.358559 C578.673829,933.218018 574.326785,928.872072 563.700678,925.491892 C555.9726,922.594595 548.244522,920.18018 547.278513,919.697297 C546.795508,918.731532 543.897478,905.693694 541.482454,890.241441 C539.550435,874.789189 536.1694,854.508108 534.237381,845.333333 L530.856347,828.432432 L524.577283,845.333333 C521.196249,854.508108 518.29822,870.926126 518.29822,881.54955 C517.33221,918.731532 514.434181,922.594595 488.351918,922.594595 L464.684679,922.594595 L464.684679,899.416216 C464.684679,886.861261 461.303645,861.268468 457.439606,842.918919 C453.575567,824.086486 450.194533,797.045045 449.711528,782.558559 L448.745518,756 L444.881479,777.72973 C442.94946,789.801802 441.01744,809.6 441.01744,822.154955 C440.534435,834.70991 438.119411,846.299099 435.704387,847.747748 C433.289362,849.196396 430.874338,865.614414 430.874338,883.963964 C430.874338,911.971171 429.425323,916.8 423.629265,914.868468 C419.765226,912.936937 416.384192,914.385586 416.384192,917.765766 C416.384192,921.145946 413.486162,920.18018 408.656114,915.351351 C401.411041,908.590991 399.962026,908.108108 392.233948,915.351351 C383.056855,923.56036 336.205383,924.526126 331.375334,916.8 C329.926319,914.385586 326.06228,914.868468 322.681246,917.765766 C315.919178,922.594595 288.3879,921.628829 282.591842,916.317117 C281.142827,914.385586 276.795783,915.351351 272.931744,918.248649 C267.61869,922.594595 266.652681,917.765766 266.652681,889.275676 L266.652681,854.508108 L241.536427,855.956757 L215.937169,857.405405 L217.386184,889.758559 L219.318203,922.594595 L198.548993,913.41982 C187.439881,908.108108 175.36476,905.210811 171.500721,906.659459 C168.119686,908.108108 165.221657,905.693694 165.221657,901.347748 C165.221657,897.001802 163.289638,893.621622 160.391608,893.621622 C157.976584,893.621622 155.56156,896.518919 155.56156,899.899099 C155.56156,903.279279 149.765501,906.659459 142.520428,907.142342 C135.275355,907.625225 127.064272,910.522523 124.649248,912.936937 C114.506145,923.077477 102.431024,918.248649 101.948019,904.727928 L101.465014,891.207207 L98.0839797,903.279279 C96.1519602,910.522523 91.3219114,914.868468 86.4918627,914.868468 C82.1448188,914.385586 78.2807798,917.282883 78.2807798,921.145946 C78.2807798,931.769369 63.7906336,919.214414 63.3076287,908.590991 C63.3076287,903.279279 61.8586141,904.245045 58.9605849,911.971171 C56.5455605,917.765766 51.2325069,922.594595 47.3684679,922.594595 C35.7763509,922.594595 25.1502437,917.282883 25.1502437,911.005405 C25.1502437,908.108108 19.8371901,905.210811 13.0751219,905.210811 L1,904.245045 L1,964.122523 L1,1024 L719.711253,1023.03423 L1437.9395,1021.58559 L1439.38851,974.263063 Z" id="Path"></path>
        </g>
    </g>
</svg>