<?xml version="1.0" encoding="UTF-8"?>
<svg width="90px" height="90px" viewBox="0 0 90 90" version="1.1" xmlns="http://www.w3.org/2000/svg" xmlns:xlink="http://www.w3.org/1999/xlink">
    <title>noun_waves_1926801</title>
    <defs>
        <filter id="filter-1">
            <feColorMatrix in="SourceGraphic" type="matrix" values="0 0 0 0 0.847000 0 0 0 0 0.847000 0 0 0 0 0.847000 0 0 0 1.000000 0"></feColorMatrix>
        </filter>
    </defs>
    <g id="Welcome" stroke="none" stroke-width="1" fill="none" fill-rule="evenodd">
        <g id="About" transform="translate(-769.000000, -628.000000)">
            <g filter="url(#filter-1)" id="noun_waves_1926801">
                <g transform="translate(769.000000, 628.000000)">
                    <path d="M88.56,67.65 L81.24,64.72 C76.3557382,62.7493032 70.9021588,62.724254 66,64.65 C52.24,63.15 52.23,57.09 52.23,52.65 C52.23,50.65 52.77,40.74 63.51,40.48 L63.72,40.48 C72.01,40.48 74.48,52.81 74.5,52.93 C74.6182223,53.544309 75.105279,54.0207433 75.7220452,54.1253932 C76.3388113,54.230043 76.9557622,53.9409313 77.27,53.4 C77.5,53.01 82.79,43.69 77.27,33.61 C75.09,29.61 70.37,26.51 64.32,25.07 C54.7038235,22.9703748 44.6482202,25.0374407 36.64,30.76 C24.14,39.41 13.81,60.21 12.17,63.63 C10.6811278,63.8977304 9.22586914,64.3269312 7.83,64.91 L1.42,67.66 C0.655085647,67.9803252 0.294674893,68.8600856 0.615000041,69.625 C0.935325189,70.3899143 1.81508563,70.7503251 2.58,70.43 L9,67.7 C13.290625,65.8808512 18.1275999,65.8376961 22.45,67.58 C27.3848169,69.5634816 32.8951831,69.5634816 37.83,67.58 L38.02,67.5 C42.2420339,65.8003661 46.9579661,65.8003661 51.18,67.5 L51.36,67.57 C56.2887365,69.5491608 61.7912635,69.5491608 66.72,67.57 L66.72,67.57 L67,67.5 C71.2190951,65.8030486 75.9309049,65.8030486 80.15,67.5 L87.47,70.43 C88.2404372,70.736518 89.1134819,70.3604372 89.4199999,69.59 C89.726518,68.8195628 89.3504372,67.9465181 88.58,67.64 L88.56,67.65 Z M52.56,64.79 L52.38,64.72 C47.4451831,62.7365184 41.9348169,62.7365184 37,64.72 L36.81,64.8 C32.5909049,66.4969514 27.8790951,66.4969514 23.66,64.8 C21.1618848,63.7967158 18.4919848,63.2905897 15.8,63.31 C18.8,57.42 28,40.49 38.45,33.31 C45.7335791,28.0583218 54.8974923,26.1296505 63.68,28 C68.83,29.22 72.94,31.86 74.68,35.05 C76.8464151,39.0250089 77.3842299,43.6860705 76.18,48.05 C74.45,43.59 70.7,37.31 63.46,37.48 C53.65,37.72 49.26,45.27 49.26,52.65 C49.26,56.42 49.26,62.81 58.19,66.01 C56.2423715,65.9191298 54.3231632,65.5069055 52.51,64.79 L52.56,64.79 Z" id="Shape" fill="#000000" fill-rule="nonzero"></path>
                    <path d="M81.66,74.81 C76.7249827,72.8275545 71.2150173,72.8275545 66.28,74.81 L66.1,74.88 C61.8805038,76.5748779 57.1694962,76.5748779 52.95,74.88 L52.76,74.8 C47.8249827,72.8175545 42.3150173,72.8175545 37.38,74.8 L37.2,74.87 C32.9805038,76.5648779 28.2694962,76.5648779 24.05,74.87 C18.9927664,72.8291946 13.3328351,72.8759411 8.31,75 C7.54508563,75.3203252 7.18467487,76.2000856 7.50500002,76.965 C7.82532517,77.7299144 8.70508562,78.0903251 9.47,77.77 C13.760625,75.9508512 18.5975999,75.9076961 22.92,77.65 C27.8579571,79.6351246 33.3720429,79.6351246 38.31,77.65 L38.49,77.58 C42.7094962,75.8851221 47.4205038,75.8851221 51.64,77.58 L51.83,77.66 C56.7650173,79.6424455 62.2749827,79.6424455 67.21,77.66 L67.39,77.59 C71.6094962,75.8951221 76.3205038,75.8951221 80.54,77.59 C81.3104372,77.896518 82.183482,77.5204372 82.49,76.75 C82.796518,75.9795628 82.4204372,75.106518 81.65,74.8 L81.66,74.81 Z" id="Path" fill="#000000" fill-rule="nonzero"></path>
                    <path d="M66.28,85.1 L66.1,85.17 C61.8807042,86.865914 57.1692958,86.865914 52.95,85.17 L52.76,85.09 C47.8251831,83.1065184 42.3148169,83.1065184 37.38,85.09 L37.2,85.16 C32.9805038,86.8548779 28.2694962,86.8548779 24.05,85.16 C23.5426829,84.9581449 22.9662141,85.0422736 22.5377439,85.3806956 C22.1092737,85.7191176 21.893897,86.2604186 21.9727439,86.8006956 C22.0515909,87.3409727 22.4126829,87.7981449 22.92,88 C27.8579571,89.9851246 33.3720429,89.9851246 38.31,88 L38.49,87.93 C42.7090951,86.2330486 47.4209049,86.2330486 51.64,87.93 L51.83,88.01 C56.7650173,89.9924455 62.2749827,89.9924455 67.21,88.01 L67.4,87.93 C67.9201157,87.7464521 68.2975441,87.2922724 68.3827968,86.7473484 C68.4680495,86.2024244 68.2473722,85.6546718 67.8081688,85.3210395 C67.3689653,84.9874072 66.782095,84.9217221 66.28,85.15 L66.28,85.1 Z" id="Path" fill="#000000" fill-rule="nonzero"></path>
                    <path d="M12.43,41.51 C13.1065993,41.9875029 14.0421514,41.8263551 14.52,41.15 C20.46,32.73 26.24,26.53 31.72,22.74 C41.57,15.92 53.45,13.33 64.3,15.62 C65.1118586,15.7912083 65.9087917,15.2718586 66.08,14.46 C66.2512083,13.6481414 65.7318586,12.8512083 64.92,12.68 C53.27,10.22 40.55,13 30,20.27 C24.23,24.27 18.19,30.7 12.05,39.42 C11.8226883,39.7473666 11.7350022,40.1517371 11.8062964,40.5438552 C11.8775906,40.9359733 12.1020032,41.2835986 12.43,41.51 Z" id="Path" fill="#000000" fill-rule="nonzero"></path>
                    <path d="M16.14,16.26 C16.5475416,16.2597485 16.9374378,16.0936815 17.22,15.8 C19.3507204,13.5482183 21.6950536,11.5086484 24.22,9.71 C28.3303465,6.8469004 32.924112,4.74989387 37.78,3.52 C38.5835743,3.31841607 39.0715839,2.50357431 38.87,1.7 C38.6684161,0.896425689 37.8535743,0.408416066 37.05,0.61 C31.8539622,1.92937558 26.938574,4.17534551 22.54,7.24 C19.842324,9.14844985 17.3371403,11.3153667 15.06,13.71 C14.643125,14.1432794 14.5252565,14.7836207 14.7605267,15.3369414 C14.9957969,15.8902621 15.5387383,16.2496291 16.14,16.25 L16.14,16.26 Z" id="Path" fill="#000000" fill-rule="nonzero"></path>
                </g>
            </g>
        </g>
    </g>
</svg>